<svg width="32" height="32" viewBox="0 0 32 32" class="s-ion-icon" xmlns="http://www.w3.org/2000/svg"><path d="M28.997 14.332c.096 5.045-1.884 8.996-5.312 11.234-2.074 1.317-4.677 2.071-7.723 2.055l-.438-.008h-.58l-.772 3.474c-.193 1.143-.676 1.238-1.11.143l-2.85-4.332a13.591 13.591 0 01-2.8-1.285c-3.525-2.237-5.506-6.235-5.409-11.28C1.861 6.208 6.98.957 15.185 1l.34.005c8.402-.19 13.617 5.093 13.472 13.327zm-16.513 3.136c-.55 0-1.008.189-1.376.564a1.896 1.896 0 00-.552 1.382c0 .548.185 1.008.552 1.382.368.375.827.564 1.376.564.562 0 1.026-.19 1.394-.564.367-.374.552-.834.552-1.382 0-.548-.185-1.008-.552-1.382-.368-.374-.832-.564-1.394-.564zm6.804 0c-.562 0-1.026.19-1.394.564a1.896 1.896 0 00-.552 1.382c0 .548.185 1.008.552 1.382.368.374.832.564 1.394.564.55 0 1.008-.189 1.376-.564.367-.374.552-.834.552-1.382 0-.548-.185-1.008-.552-1.382-.368-.375-.827-.564-1.376-.564zM12.7 8c-.716 0-1.43.114-2.14.343a6.616 6.616 0 00-1.902.956 1.763 1.763 0 00-.5.553 1.519 1.519 0 00-.158.724c0 .422.122.779.36 1.071.252.31.56.461.92.461.2 0 .449-.058 1.172-.41l.34-.17.196-.108c.255-.138.484-.245.694-.324.246-.093.496-.14.748-.14.28 0 .504.058.666.19a.579.579 0 01.214.474c0 .224-.058.429-.176.612a5.696 5.696 0 01-.6.747 6.091 6.091 0 00-.926 1.197c-.23.404-.35.908-.35 1.512 0 .43.109.76.309.994.21.246.502.376.881.376.3 0 .559-.087.78-.258a1.15 1.15 0 00.425-.734c.05-.212.172-.425.357-.631.205-.229.5-.5.887-.816.43-.38.774-.701 1.04-.968.279-.278.517-.613.713-1.006.2-.399.3-.836.3-1.313 0-.644-.187-1.22-.56-1.73-.368-.5-.874-.895-1.521-1.18C14.233 8.142 13.51 8 12.7 8zm6.588.072c-.604 0-1.105.171-1.505.506-.405.338-.625.8-.603 1.729l.97 5.774.048.164c.072.208.177.374.312.505.212.204.47.308.778.308.307 0 .566-.104.778-.308.167-.161.288-.375.373-.827l.969-6.08-.022-.191a1.715 1.715 0 00-.581-1.063c-.394-.342-.898-.517-1.517-.517z" fill-rule="nonzero"/></svg>