<svg width="32" height="32" viewBox="0 0 32 32" class="s-ion-icon" xmlns="http://www.w3.org/2000/svg"><path d="M8.582 28.876C4.63 26.4 2 22.008 2 17 2 9.268 8.268 3 16 3s14 6.268 14 14c0 4.04-1.712 7.682-4.45 10.237-1.283-.899-2.387-1.518-3.313-1.859-.972-.9-1.6-2.737-1.885-5.509 1.333-.588 2.091-1.374 2.091-2.49 0-.744-.364-1.18-1.093-1.304.292-.607.588-1.774.887-3.501.648-3.638-3.22-4.678-6.806-4.678-3.588 0-4.586 1.181-6.173 2.927-1.301 1.025-1.821 2.821-1.56 5.388l.086-.31c.191-.621.486-1.269.884-1.941.122.923.596 2.102 1.423 3.535.009.086.03.324.064.713.381 4.519 1.046 5.46 1.966 6.368l.143.14c.219.21.45.43.696.7a1.62 1.62 0 01.163-.004h.389l.809.003.064.855c-2.785 1.139-4.576 1.894-5.742 2.57z" fill-rule="evenodd"/></svg>